#!OML:ASF \\sashay\E\Suitcase\Project 1\Capture day 1\Session 1\Male1.ASF
:FULLY-SPECIFIED
:DEGREES
451
root 0.585639 17.4746 -3.00995 5.9509 -2.42895 1.91236
lowerback -0.635913 0.931902 -5.24162
upperback 0.407773 1.28813 0.778932
thorax 0.643214 0.617872 3.75617
lowerneck -13.9283 -1.13978 -1.04501
upperneck 23.2455 -0.834625 -2.01299
head 9.64818 -0.705952 -0.625074
rclavicle -3.77691e-015 -6.75868e-015
rhumerus -46.8777 -31.5008 -56.2288
rradius 15.0597
rwrist 5.32206
rhand -12.9986 11.7919
rfingers 7.12502
rthumb 13.0945 -17.777
lclavicle -3.77691e-015 -6.75868e-015
lhumerus -37.0954 10.6142 79.7874
lradius 24.6883
lwrist -12.9826
lhand -0.146995 42.6978
lfingers 7.12502
lthumb 25.4496 71.0187
rfemur -7.02675 -4.55193 17.4463
rtibia 56.8868
rfoot 8.41888 -5.67209
rtoes 11.2992
lfemur -19.7355 -0.53898 -26.0405
ltibia 21.2258
lfoot -13.3943 -1.80092
ltoes -3.26415
452
root 0.609204 17.476 -2.87718 5.50697 -2.1772 1.82257
lowerback -0.184398 0.732925 -4.97146
upperback 0.393067 0.995743 0.771284
thorax 0.409438 0.479358 3.58692
lowerneck -14.0457 -0.913444 -1.27671
upperneck 23.4383 -0.554531 -1.6181
head 9.74284 -0.554108 -0.416599
rclavicle 8.00108e-015 1.98785e-015
rhumerus -46.2728 -30.4895 -57.2867
rradius 15.4266
rwrist 5.01226
rhand -12.8242 11.7022
rfingers 7.12502
rthumb 13.2626 -17.8558
lclavicle 8.00108e-015 1.98785e-015
lhumerus -37.4729 10.4627 79.7015
lradius 25.2452
lwrist -12.8359
lhand -0.590056 41.9156
lfingers 7.12502
lthumb 25.0251 70.2964
rfemur -7.72006 -4.92854 17.4847
rtibia 58.845
rfoot 7.21414 -6.62615
rtoes 10.3987
lfemur -18.7491 -0.681434 -26.0372
ltibia 21.2786
lfoot -13.7337 -1.95209
ltoes -1.36989
453
root 0.610969 17.4733 -2.76308 5.25394 -2.35424 2.41228
lowerback 0.0412252 0.957121 -5.76154
upperback 0.304455 1.28182 0.576449
thorax 0.150989 0.629619 3.82514
lowerneck -13.6113 -1.11478 -1.07789
upperneck 23.5268 -0.829662 -1.86638
head 9.68828 -0.690804 -0.567985
rclavicle -2.0773e-014 9.14409e-015
rhumerus -46.3427 -30.3776 -57.4408
rradius 15.7842
rwrist 3.84619
rhand -12.5619 12.0797
rfingers 7.12502
rthumb 13.5154 -17.4617
lclavicle -2.0773e-014 9.14409e-015
lhumerus -37.1099 9.55608 79.9076
lradius 24.9385
lwrist -12.9131
lhand 0.0234652 43.0051
lfingers 7.12502
lthumb 25.6128 71.3026
rfemur -8.97387 -5.0434 16.8668
rtibia 60.7712
rfoot 6.03653 -7.36904
rtoes 11.8241
lfemur -18.0433 -0.581088 -26.7008
ltibia 21.1285
lfoot -13.9995 -1.81733
ltoes -1.4479
454
root 0.620561 17.4799 -2.64017 5.19892 -2.0616 2.48782
lowerback -0.074969 0.641828 -5.91314
upperback 0.433311 0.872888 0.616463
thorax 0.390923 0.414441 3.9559
lowerneck -13.8206 -1.05968 -1.58367
upperneck 23.3657 -0.765371 -1.32178
head 9.67695 -0.644405 -0.286064
rclavicle -8.3738e-015 5.96354e-016
rhumerus -44.9016 -29.4616 -58.7861
rradius 15.7506
rwrist 3.18676
rhand -12.3445 11.5392
rfingers 7.12502
rthumb 13.725 -17.9882
lclavicle -8.3738e-015 5.96354e-016
lhumerus -36.9453 9.5557 79.9398
lradius 25.4267
lwrist -12.5042
lhand -1.13988 41.8199
lfingers 7.12502
lthumb 24.4981 70.273
rfemur -10.3703 -5.49569 16.8026
rtibia 62.5041
rfoot 5.03768 -7.87156
rtoes 13.0176
lfemur -17.3732 -0.436037 -26.9059
ltibia 20.9179
lfoot -14.0624 -2.06348
ltoes -1.28162
455
root 0.633905 17.4743 -2.51694 4.95675 -1.81744 2.83253
lowerback 0.231918 0.585722 -6.24956
upperback 0.267202 0.772891 0.51668
thorax 0.0556527 0.378153 4.03728
lowerneck -13.8437 -0.790709 -1.15885
upperneck 23.9185 -0.340406 -1.88088
head 9.87521 -0.477711 -0.503769
rclavicle -1.93815e-015 -7.35503e-015
rhumerus -45.0404 -29.0759 -58.9895
rradius 16.2507
rwrist 2.82539
rhand -12.4688 12.0575
rfingers 7.12502
rthumb 13.6052 -17.478
lclavicle -1.93815e-015 -7.35503e-015
lhumerus -36.8422 9.62408 79.7615
lradius 25.1022
lwrist -13.0572
lhand -0.344081 42.9854
lfingers 7.12502
lthumb 25.2608 71.3331
rfemur -11.4091 -6.02113 16.4131
rtibia 64.0429
rfoot 3.70016 -8.13573
rtoes 12.4894
lfemur -16.5485 -0.43483 -27.3857
ltibia 20.6397
lfoot -14.2423 -2.21193
ltoes -3.81141
456
root 0.644337 17.4776 -2.39957 4.65965 -1.65378 3.21663
lowerback 0.269217 0.543278 -6.66572
upperback 0.536877 0.722278 0.435881
thorax 0.315423 0.336563 4.18951
lowerneck -13.9713 -1.30131 -1.50715
upperneck 23.9136 -1.04925 -1.57488
head 9.89902 -0.80247 -0.427557
rclavicle -1.58779e-014 2.98177e-015
rhumerus -44.2899 -30.1265 -58.7358
rradius 15.95
rwrist 3.81064
rhand -12.6206 12.5407
rfingers 7.12502
rthumb 13.4589 -17.0045
lclavicle -1.58779e-014 2.98177e-015
lhumerus -36.2707 9.22904 80.0029
lradius 25.4188
lwrist -12.6955
lhand -0.727682 42.913
lfingers 7.12502
lthumb 24.8932 71.312
rfemur -12.2158 -6.38629 15.9826
rtibia 65.3993
rfoot 2.65717 -8.29353
rtoes 16.3868
lfemur -15.5236 -0.505975 -27.8451
ltibia 20.3123
lfoot -14.2034 -2.29854
ltoes -2.91685
457
root 0.634202 17.4889 -2.25789 4.35004 -1.73149 2.67378
lowerback 0.333196 0.601325 -6.42303
upperback 0.457204 0.792199 0.611079
thorax 0.189196 0.378319 4.23305
lowerneck -13.6413 -1.36019 -1.24487
upperneck 23.968 -1.18917 -1.6342
head 9.85188 -0.849961 -0.507583
rclavicle -8.4732e-015 8.54774e-015
rhumerus -44.1039 -29.3383 -59.3317
rradius 16.1652
rwrist 2.71898
rhand -12.7853 12.4182
rfingers 7.12502
rthumb 13.3002 -17.1373
lclavicle -8.4732e-015 8.54774e-015
lhumerus -36.2398 9.04569 79.9459
lradius 25.3609
lwrist -12.5896
lhand -1.43475 42.9792
lfingers 7.12502
lthumb 24.2154 71.4703
rfemur -13.1977 -6.12286 16.8062
rtibia 66.3774
rfoot 1.86843 -8.72176
rtoes 15.2643
lfemur -14.4691 -0.084934 -27.2179
ltibia 19.9316
lfoot -14.6172 -2.42405
ltoes -3.12806
458
root 0.660751 17.4715 -2.15372 4.2438 -1.14681 3.49146
lowerback 0.580603 0.330097 -7.01637
upperback 0.354832 0.406786 0.355606
thorax -0.0107092 0.194131 4.30197
lowerneck -13.5347 -1.15765 -1.77079
upperneck 23.7634 -0.963191 -0.917464
head 9.76686 -0.709627 -0.138714
rclavicle -9.54166e-015 4.77083e-015
rhumerus -43.831 -29.6609 -59.2779
rradius 16.2795
rwrist 3.09657
rhand -12.8156 12.465
rfingers 7.12502
rthumb 13.2709 -17.0925
lclavicle -9.54166e-015 4.77083e-015
lhumerus -35.918 8.90513 79.8896
lradius 25.215
lwrist -12.7649
lhand -1.8906 41.1209
lfingers 7.12502
lthumb 23.7783 69.6696
rfemur -14.2853 -7.01312 15.734
rtibia 67.3898
rfoot 1.30177 -8.55129
rtoes 17.005
lfemur -13.9025 -0.361715 -28.308
ltibia 19.921
lfoot -14.6716 -2.39623
ltoes -4.70187
459
root 0.666384 17.4693 -2.03166 3.93033 -0.954658 3.48418
lowerback 0.592663 0.225989 -7.1272
upperback 0.5744 0.27487 0.358686
thorax 0.225966 0.113543 4.36906
lowerneck -14.0008 -0.929369 -1.36338
upperneck 24.0941 -0.618547 -1.34558
head 9.96906 -0.565801 -0.318939
rclavicle 1.36167e-014 6.16232e-015
rhumerus -43.0628 -30.3918 -59.3185
rradius 15.9778
rwrist 3.52005
rhand -12.7515 13.0786
rfingers 7.12502
rthumb 13.3327 -16.4749
lclavicle 1.36167e-014 6.16232e-015
lhumerus -35.71 8.44353 80.0174
lradius 25.9091
lwrist -12.0065
lhand -2.45548 41.0073
lfingers 7.12502
lthumb 23.2365 69.6255
rfemur -15.0549 -7.22674 15.8367
rtibia 68.1213
rfoot 0.0898613 -8.40596
rtoes 12.607
lfemur -13.1101 -0.3119 -28.3371
ltibia 19.7101
lfoot -14.8193 -2.59112
ltoes -4.19927
460
root 0.672283 17.4634 -1.92352 3.87209 -0.827352 3.19735
lowerback 0.684796 0.184362 -6.91179
upperback 0.488511 0.209821 0.50365
thorax 0.093703 0.0884253 4.39825
lowerneck -13.4739 -1.33945 -1.48473
upperneck 23.7581 -1.21619 -1.21357
head 9.74988 -0.835178 -0.320776
rclavicle -9.61621e-015 -5.96354e-016
rhumerus -42.5409 -28.7861 -60.5939
rradius 16.9228
rwrist 1.73348
rhand -12.7763 12.4915
rfingers 7.12502
rthumb 13.3088 -17.0635
lclavicle -9.61621e-015 -5.96354e-016
lhumerus -35.4392 8.63906 79.9489
lradius 25.8818
lwrist -11.8226
lhand -1.94812 42.4503
lfingers 7.12502
lthumb 23.7232 71.0061
rfemur -16.1802 -7.16671 16.3144
rtibia 68.762
rfoot -0.305111 -8.57412
rtoes 15.5361
lfemur -12.5824 -0.349268 -28.0512
ltibia 19.7524
lfoot -15.1418 -2.45755
ltoes -4.25669
